<?xml version="1.0" encoding="utf-8"?>
<!-- Generator: Adobe Illustrator 16.0.0, SVG Export Plug-In . SVG Version: 6.00 Build 0)  -->
<!DOCTYPE svg PUBLIC "-//W3C//DTD SVG 1.1//EN" "http://www.w3.org/Graphics/SVG/1.1/DTD/svg11.dtd">
<svg version="1.1" xmlns="http://www.w3.org/2000/svg" xmlns:xlink="http://www.w3.org/1999/xlink" x="0px" y="0px"
	 width="593.53px" height="381.144px" viewBox="0 0 593.53 381.144" enable-background="new 0 0 593.53 381.144"
	 xml:space="preserve">
<g id="Fondo">
</g>
<g id="Guías">
</g>
<g id="Primer_plano">
	<g>
		<g>
			<path fill-rule="evenodd" clip-rule="evenodd" fill="#0077B4" d="M519.036,199.636C489.431,139.59,424.159,97.217,347.729,95.811
				c-78.37-1.442-147.234,41.988-177.768,103.376c19.05-75.795,91.781-131.418,177.712-129.837
				C432.046,70.902,500.882,125.232,519.036,199.636z"/>
		</g>
		<g>
			<g>
				<ellipse fill="#F18700" cx="400.897" cy="88.682" rx="40.915" ry="43.143"/>
				<path fill="#F18700" d="M400.897,88.682"/>
			</g>
			<g>
				<ellipse fill="#F18700" cx="319.067" cy="43.143" rx="40.915" ry="43.143"/>
				<path fill="#F18700" d="M319.067,43.143"/>
			</g>
			<g>
				<ellipse fill="#FAB600" cx="332.706" cy="134.222" rx="27.277" ry="28.762"/>
				<path fill="#FAB600" d="M332.706,134.222"/>
			</g>
		</g>
		<path fill-rule="evenodd" clip-rule="evenodd" fill="#0077B4" d="M156.164,274.151c0-8.154,1.44-15.791,4.325-22.913
			c2.954-7.191,7.242-13.604,12.869-19.242c5.413-5.339,11.742-9.489,18.987-12.458c7.243-2.964,14.765-4.445,22.574-4.448
			c8.086,0,15.397,1.373,21.941,4.115c6.54,2.745,12.447,6.934,17.721,12.568c5.202,5.488,9.174,11.68,11.919,18.575
			c2.743,6.823,4.114,13.98,4.114,21.467c0,8.231-1.444,15.943-4.325,23.135c-2.884,7.119-7.14,13.459-12.763,19.021
			c-5.347,5.267-11.64,9.381-18.882,12.347c-7.246,2.892-14.768,4.338-22.573,4.338c-8.228,0-15.579-1.335-22.046-4.005
			c-6.471-2.669-12.378-6.819-17.721-12.457c-5.205-5.485-9.213-11.676-12.025-18.575
			C157.535,288.649,156.164,281.496,156.164,274.151z M178.843,269.591c0,13.497,3.27,24.436,9.81,32.812
			c6.61,8.307,15.187,12.457,25.738,12.457c9.916,0,18.001-3.705,24.261-11.122c6.329-7.487,9.494-17.126,9.494-28.92
			c0-12.68-3.375-23.135-10.126-31.365c-6.682-8.231-15.19-12.348-25.527-12.348c-9.704,0-17.757,3.672-24.156,11.012
			C182.008,249.386,178.843,258.545,178.843,269.591z M143.968,306.741c0,4.747,0.56,8.714,1.688,11.901
			c1.193,3.19,3.092,5.971,5.696,8.342h-34.388c2.601-2.371,4.463-5.151,5.591-8.342c1.193-3.188,1.79-7.154,1.793-11.901v-67.404
			c0-4.817-0.6-8.86-1.793-12.124c-1.196-3.26-3.059-6.079-5.591-8.453c6.046-0.146,11.251-0.406,15.612-0.778
			c4.358-0.444,8.155-1.001,11.393-1.668V306.741z M120.234,189.841c0-3.782,1.266-7.007,3.797-9.677s5.59-4.004,9.177-4.004
			c3.514,0,6.504,1.335,8.966,4.004c2.459,2.669,3.688,5.895,3.692,9.677c0,3.858-1.233,7.119-3.692,9.788
			c-2.393,2.596-5.38,3.893-8.966,3.893c-3.659,0-6.751-1.335-9.282-4.004C121.463,196.848,120.234,193.623,120.234,189.841z
			 M32.718,233.775c1.899,0.372,3.831,0.633,5.801,0.779c1.969,0.149,3.973,0.223,6.013,0.223c9.493,0,16.841-2.148,22.046-6.452
			c5.201-4.372,7.802-10.452,7.805-18.241c0-7.264-2.32-12.937-6.962-17.018c-4.641-4.15-11.112-6.225-19.409-6.229
			c-2.182,0.076-4.536,0.299-7.067,0.667c-2.462,0.299-5.205,0.778-8.228,1.446V233.775z M0.757,326.984
			c3.092-2.965,5.307-6.302,6.646-10.011c1.335-3.781,2.001-9.565,2.004-17.352v-99.993c0-7.786-0.669-13.532-2.004-17.24
			c-1.338-3.705-3.553-7.004-6.646-9.899h49.894c14.906,0,26.615,3.08,35.126,9.232c8.508,6.083,12.76,14.425,12.763,25.026
			c0,6.228-1.829,11.867-5.485,16.907c-3.586,4.971-9.002,9.343-16.245,13.125c11.392,3.413,20.006,8.641,25.844,15.683
			c5.907,6.973,8.86,15.572,8.86,25.805c0,15.127-5.626,27.028-16.877,35.704c-11.254,8.676-26.866,13.014-46.835,13.014H0.757z
			 M32.718,308.743c6.045,0.667,10.334,1.112,12.869,1.335c2.601,0.148,4.71,0.223,6.329,0.223c11.181,0,19.937-2.632,26.265-7.897
			c6.398-5.263,9.596-12.493,9.599-21.689c0-9.343-3.375-17.018-10.126-23.024c-6.75-6.079-15.542-9.117-26.371-9.121
			c-2.321,0.077-5.063,0.3-8.228,0.668c-3.095,0.299-6.54,0.778-10.337,1.445V308.743z"/>
		<path fill-rule="evenodd" clip-rule="evenodd" fill="#0077B4" d="M541.231,234.715h-14.029v-8.009
			c8.438-0.813,15.048-4.891,19.831-12.235c4.853-7.414,7.453-17.459,7.806-30.142h6.223v34.591h30.485v20.243
			c-1.688-1.557-3.765-2.669-6.224-3.337c-2.393-0.74-5.558-1.108-9.493-1.111h-14.769v52.61c0,9.642,1.511,16.722,4.537,21.244
			c3.092,4.525,7.838,6.785,14.24,6.785c1.477-0.073,3.022-0.22,4.641-0.445c1.615-0.296,3.234-0.663,4.853-1.112l-10.338,15.906
			h-0.527c-2.814,0.295-4.853,0.441-6.118,0.444c-10.337,0-18.109-2.746-23.312-8.23c-5.205-5.485-7.806-13.604-7.806-24.359
			V234.715z M440.804,270.418c0.491,13.497,4.533,24.248,12.131,32.257c7.664,7.935,17.648,11.9,29.957,11.9
			c5.486,0,11.251-0.924,17.3-2.78c6.118-1.926,12.728-4.855,19.831-8.787l-11.393,20.911c-6.118,2.374-11.813,4.149-17.088,5.339
			c-5.274,1.185-10.232,1.776-14.873,1.779c-17.089,0-31.154-5.45-42.193-16.351c-11.044-10.899-16.562-24.728-16.562-41.487
			c0-17.202,5.063-31.29,15.189-42.267c10.196-11.046,23.203-16.569,39.029-16.573c14.557,0,26.124,5.044,34.704,15.128
			c8.577,10.01,12.971,23.656,13.186,40.931H440.804z M442.28,255.18h54.852c-0.421-7.637-3.095-13.865-8.017-18.686
			c-4.925-4.894-11.042-7.342-18.354-7.342c-7.879,0-14.346,2.336-19.409,7.008C446.289,240.759,443.263,247.099,442.28,255.18z
			 M415.015,172.649c-3.164,2.892-5.416,6.194-6.751,9.899c-1.267,3.708-1.898,9.454-1.898,17.24v130.915
			c-5.137-0.149-10.021-1.892-14.662-5.229c-4.573-3.337-10.338-9.676-17.3-19.02l-75.632-100.55v93.876
			c0,8.085,0.633,13.942,1.898,17.573c1.267,3.637,3.445,6.896,6.54,9.789h-33.228c3.092-2.965,5.307-6.302,6.646-10.011
			c1.335-3.782,2.001-9.565,2.004-17.352v-99.993c0-7.786-0.669-13.532-2.004-17.24c-1.338-3.705-3.553-7.004-6.646-9.899h29.746
			l86.708,116.01v-88.87c0-7.786-0.669-13.532-2.004-17.24c-1.338-3.705-3.554-7.004-6.646-9.899H415.015z"/>
		<g>
			<path fill="#005CA9" d="M0,344.875h3.911v30.935h9.601v3.303H0V344.875z"/>
			<path fill="#005CA9" d="M29.941,373.524c0,1.88,0.051,4.013,0.254,5.588H26.69l-0.254-2.591h-0.152
				c-1.067,1.879-2.794,2.996-4.927,2.996c-3.251,0-5.791-2.742-5.791-7.009c0-6.198,4.927-8.891,10.464-8.941v-0.762
				c0-3.301-0.863-5.536-3.911-5.536c-1.523,0-2.896,0.457-4.064,1.27l-0.863-2.742c1.067-0.763,3.302-1.626,5.74-1.626
				c4.928,0,7.01,3.2,7.01,8.687V373.524z M26.131,366.362c-2.031,0-6.756,0.405-6.756,5.739c0,3.252,1.625,4.369,2.997,4.369
				c1.728,0,3.149-1.271,3.607-3.708c0.101-0.458,0.152-0.966,0.152-1.423V366.362z"/>
			<path fill="#005CA9" d="M35.399,343.96h3.86v13.513h0.102c1.27-2.438,3.099-3.302,5.232-3.302c3.86,0,6.705,4.368,6.705,12.445
				c0,8.839-3.657,12.901-7.467,12.901c-2.59,0-3.911-1.523-4.876-3.605h-0.203l-0.254,3.2h-3.302
				c0.051-1.423,0.203-4.217,0.203-5.894V343.96z M39.26,370.477c0,0.559,0.051,1.066,0.153,1.524
				c0.914,3.606,2.59,4.267,3.708,4.267c3.149,0,4.267-4.267,4.267-9.5c0-4.927-1.168-9.244-4.369-9.244
				c-1.829,0-3.302,2.235-3.658,4.368c-0.051,0.559-0.102,1.117-0.102,1.676V370.477z"/>
			<path fill="#005CA9" d="M70.776,366.818c0,9.499-4.369,12.699-8.178,12.699c-4.419,0-7.975-4.013-7.975-12.647
				c0-8.94,4.013-12.699,8.229-12.699C67.271,354.171,70.776,358.285,70.776,366.818z M58.534,366.818
				c0,4.064,0.711,9.602,4.267,9.602c3.353,0,4.063-5.74,4.063-9.602c0-3.759-0.711-9.549-4.165-9.549
				C59.194,357.27,58.534,363.06,58.534,366.818z"/>
			<path fill="#005CA9" d="M75.066,360.876c0-2.083-0.152-4.521-0.203-6.35h3.505l0.203,3.911h0.102
				c0.813-2.337,2.896-4.267,5.181-4.267c0.305,0,0.559,0,0.813,0.051v3.962c-0.254,0-0.508,0-0.813,0
				c-2.489,0-4.317,2.286-4.724,5.079c-0.102,0.661-0.152,1.423-0.152,2.235v13.614h-3.912V360.876z"/>
			<path fill="#005CA9" d="M100.333,373.524c0,1.88,0.051,4.013,0.254,5.588h-3.505l-0.254-2.591h-0.152
				c-1.067,1.879-2.794,2.996-4.927,2.996c-3.251,0-5.791-2.742-5.791-7.009c0-6.198,4.928-8.891,10.464-8.941v-0.762
				c0-3.301-0.864-5.536-3.911-5.536c-1.524,0-2.896,0.457-4.064,1.27l-0.863-2.742c1.066-0.763,3.302-1.626,5.74-1.626
				c4.927,0,7.01,3.2,7.01,8.687V373.524z M96.524,366.362c-2.032,0-6.756,0.405-6.756,5.739c0,3.252,1.625,4.369,2.997,4.369
				c1.727,0,3.149-1.271,3.606-3.708c0.102-0.458,0.152-0.966,0.152-1.423V366.362z"/>
			<path fill="#005CA9" d="M110.16,348.786v5.74h4.724v2.946h-4.724v14.629c0,3.2,1.118,4.064,2.54,4.064
				c0.66,0,1.168-0.052,1.575-0.153l0.203,2.997c-0.711,0.254-1.625,0.407-2.896,0.407c-1.575,0-2.946-0.407-3.86-1.474
				c-1.016-1.117-1.473-2.793-1.473-6.197v-14.273h-2.997v-2.946h2.997v-4.165L110.16,348.786z"/>
			<path fill="#005CA9" d="M132.99,366.818c0,9.499-4.368,12.699-8.178,12.699c-4.419,0-7.975-4.013-7.975-12.647
				c0-8.94,4.013-12.699,8.229-12.699C129.485,354.171,132.99,358.285,132.99,366.818z M120.748,366.818
				c0,4.064,0.711,9.602,4.267,9.602c3.353,0,4.064-5.74,4.064-9.602c0-3.759-0.711-9.549-4.166-9.549
				C121.408,357.27,120.748,363.06,120.748,366.818z"/>
			<path fill="#005CA9" d="M137.28,360.876c0-2.083-0.152-4.521-0.204-6.35h3.505l0.203,3.911h0.102
				c0.812-2.337,2.896-4.267,5.181-4.267c0.305,0,0.559,0,0.813,0.051v3.962c-0.254,0-0.508,0-0.813,0
				c-2.489,0-4.318,2.286-4.724,5.079c-0.102,0.661-0.152,1.423-0.152,2.235v13.614h-3.911V360.876z"/>
			<path fill="#005CA9" d="M154.115,348.177c0,1.523-0.915,2.54-2.388,2.54c-1.27,0-2.235-1.017-2.235-2.54
				c0-1.524,1.016-2.54,2.286-2.54C153.201,345.637,154.115,346.652,154.115,348.177z M149.899,379.112v-24.586h3.912v24.586
				H149.899z"/>
			<path fill="#005CA9" d="M174.303,366.818c0,9.499-4.369,12.699-8.178,12.699c-4.419,0-7.975-4.013-7.975-12.647
				c0-8.94,4.013-12.699,8.229-12.699C170.798,354.171,174.303,358.285,174.303,366.818z M162.061,366.818
				c0,4.064,0.711,9.602,4.267,9.602c3.353,0,4.064-5.74,4.064-9.602c0-3.759-0.711-9.549-4.166-9.549
				C162.722,357.27,162.061,363.06,162.061,366.818z"/>
			<path fill="#005CA9" d="M201.851,378.502c-1.067,0.559-2.794,0.915-4.927,0.915c-6.654,0-11.48-5.385-11.48-17.017
				c0-13.513,6.706-17.83,12.141-17.83c2.032,0,3.556,0.406,4.216,0.863l-0.864,3.302c-0.812-0.355-1.625-0.711-3.403-0.711
				c-3.657,0-7.975,3.556-7.975,14.02c0,10.465,3.86,13.919,8.077,13.919c1.473,0,2.743-0.355,3.556-0.712L201.851,378.502z"/>
			<path fill="#005CA9" d="M205.327,343.96h3.912v35.152h-3.912V343.96z"/>
			<path fill="#005CA9" d="M222.874,344.469l-5.333,6.857h-2.59l3.962-6.857H222.874z M215.001,379.112v-24.586h3.911v24.586
				H215.001z"/>
			<path fill="#005CA9" d="M224.318,360.876c0-2.896-0.152-4.368-0.203-6.35h3.403l0.203,2.997h0.102
				c1.067-1.981,3.048-3.353,5.639-3.353c3.403,0,5.943,2.488,5.943,8.433v16.509h-3.911v-15.799c0-2.946-0.559-5.841-3.403-5.841
				c-1.625,0-3.2,1.371-3.657,3.962c-0.153,0.609-0.204,1.371-0.204,2.235v15.442h-3.911V360.876z"/>
			<path fill="#005CA9" d="M249.079,348.177c0,1.523-0.914,2.54-2.387,2.54c-1.27,0-2.235-1.017-2.235-2.54
				c0-1.524,1.016-2.54,2.286-2.54C248.165,345.637,249.079,346.652,249.079,348.177z M244.863,379.112v-24.586h3.911v24.586
				H244.863z"/>
			<path fill="#005CA9" d="M266.169,378.502c-0.864,0.508-2.337,0.915-4.064,0.915c-5.384,0-8.991-4.317-8.991-12.445
				c0-7.062,3.556-12.801,9.702-12.801c1.32,0,2.743,0.355,3.454,0.762l-0.762,3.2c-0.508-0.254-1.524-0.66-2.793-0.66
				c-3.962,0-5.689,4.674-5.689,9.499c0,5.74,2.184,9.194,5.791,9.194c1.016,0,1.93-0.203,2.793-0.661L266.169,378.502z"/>
			<path fill="#005CA9" d="M284.274,366.818c0,9.499-4.369,12.699-8.178,12.699c-4.419,0-7.975-4.013-7.975-12.647
				c0-8.94,4.013-12.699,8.229-12.699C280.77,354.171,284.274,358.285,284.274,366.818z M272.032,366.818
				c0,4.064,0.711,9.602,4.267,9.602c3.353,0,4.064-5.74,4.064-9.602c0-3.759-0.711-9.549-4.166-9.549
				C272.693,357.27,272.032,363.06,272.032,366.818z"/>
			<path fill="#005CA9" d="M294.196,381.144l10.921-36.675h2.945l-10.921,36.675H294.196z"/>
			<path fill="#005CA9" d="M321.235,348.38h-6.249v-3.505h16.408v3.505h-6.249v30.732h-3.91V348.38z"/>
			<path fill="#005CA9" d="M346.858,366.818c0,9.499-4.368,12.699-8.178,12.699c-4.42,0-7.976-4.013-7.976-12.647
				c0-8.94,4.013-12.699,8.229-12.699C343.354,354.171,346.858,358.285,346.858,366.818z M334.616,366.818
				c0,4.064,0.712,9.602,4.267,9.602c3.354,0,4.063-5.74,4.063-9.602c0-3.759-0.71-9.549-4.164-9.549
				C335.277,357.27,334.616,363.06,334.616,366.818z"/>
			<path fill="#005CA9" d="M351.198,360.876c0-2.896-0.152-4.368-0.203-6.35h3.403l0.204,3.048h0.101
				c1.067-1.981,2.946-3.403,5.537-3.403c2.286,0,4.217,1.066,5.131,3.759h0.102c0.66-1.22,1.524-2.234,2.438-2.794
				c0.965-0.66,2.134-0.965,3.403-0.965c3.302,0,5.893,2.388,5.893,8.687v16.255h-3.861v-15.392c0-3.2-0.457-6.299-3.454-6.299
				c-1.625,0-3.047,1.371-3.606,3.708c-0.102,0.609-0.152,1.371-0.152,2.184v15.799h-3.86v-16.104c0-2.691-0.457-5.587-3.403-5.587
				c-1.625,0-3.2,1.371-3.657,4.013c-0.102,0.609-0.152,1.32-0.152,2.083v15.595h-3.861V360.876z"/>
			<path fill="#005CA9" d="M395.619,373.524c0,1.88,0.051,4.013,0.253,5.588h-3.504l-0.255-2.591h-0.152
				c-1.066,1.879-2.794,2.996-4.928,2.996c-3.251,0-5.79-2.742-5.79-7.009c0-6.198,4.927-8.891,10.464-8.941v-0.762
				c0-3.301-0.863-5.536-3.911-5.536c-1.523,0-2.896,0.457-4.063,1.27l-0.863-2.742c1.065-0.763,3.301-1.626,5.739-1.626
				c4.928,0,7.011,3.2,7.011,8.687V373.524z M391.809,366.362c-2.031,0-6.756,0.405-6.756,5.739c0,3.252,1.625,4.369,2.997,4.369
				c1.728,0,3.149-1.271,3.606-3.708c0.102-0.458,0.152-0.966,0.152-1.423V366.362z"/>
			<path fill="#005CA9" d="M423.827,343.96v29.259c0,1.677,0.151,4.471,0.203,5.894h-3.354l-0.254-3.049h-0.152
				c-0.812,1.728-2.539,3.454-5.182,3.454c-4.114,0-7.111-4.47-7.111-12.597c0-8.687,3.607-12.75,7.366-12.75
				c1.829,0,3.556,0.812,4.521,2.896h0.102V343.96H423.827z M419.966,363.924c0-0.508,0-1.118-0.051-1.625
				c-0.254-2.591-1.778-4.775-3.657-4.775c-3.251,0-4.368,4.521-4.368,9.397c0,5.181,1.32,9.347,4.165,9.347
				c1.22,0,2.896-0.66,3.759-4.217c0.102-0.457,0.152-1.016,0.152-1.625V363.924z"/>
			<path fill="#005CA9" d="M432.027,367.175c0,7.568,2.997,9.143,5.791,9.143c1.727,0,3.098-0.405,4.063-0.913l0.66,2.844
				c-1.372,0.711-3.454,1.169-5.435,1.169c-5.894,0-8.941-4.826-8.941-12.344c0-7.924,3.403-12.902,8.331-12.902
				c4.979,0,7.01,5.283,7.01,10.769c0,0.966-0.051,1.625-0.102,2.235H432.027z M439.748,364.279
				c0.051-4.877-1.778-7.061-3.657-7.061c-2.59,0-3.86,3.708-4.013,7.061H439.748z"/>
			<path fill="#005CA9" d="M476.642,364.381c-0.254-4.521-0.508-9.55-0.355-13.41h-0.203c-0.762,3.81-1.676,7.873-2.743,11.887
				l-4.165,16.052h-2.539l-3.963-15.392c-1.168-4.368-2.133-8.585-2.845-12.547h-0.151c0.051,4.013-0.203,8.788-0.407,13.664
				l-0.66,14.478h-3.505l2.031-34.237h4.268l3.962,15.646c1.169,4.521,2.032,7.873,2.743,11.784h0.152
				c0.66-3.911,1.422-7.162,2.54-11.784l3.86-15.646h4.369l1.98,34.237h-3.657L476.642,364.381z"/>
			<path fill="#005CA9" d="M500.743,372.406c0,2.693,0.152,4.877,0.203,6.706h-3.403l-0.305-2.591h-0.102
				c-0.711,1.219-2.591,2.996-5.231,2.996c-4.268,0-5.994-3.352-5.994-9.447v-15.544h3.911v14.985c0,3.859,0.609,6.705,3.302,6.705
				c2.285,0,3.302-2.134,3.505-3.252c0.152-0.66,0.203-1.422,0.203-2.234v-16.204h3.911V372.406z"/>
			<path fill="#005CA9" d="M508.944,367.175c0,7.568,2.997,9.143,5.791,9.143c1.727,0,3.099-0.405,4.063-0.913l0.661,2.844
				c-1.372,0.711-3.455,1.169-5.436,1.169c-5.893,0-8.94-4.826-8.94-12.344c0-7.924,3.403-12.902,8.331-12.902
				c4.978,0,7.009,5.283,7.009,10.769c0,0.966-0.05,1.625-0.101,2.235H508.944z M516.665,364.279
				c0.051-4.877-1.777-7.061-3.657-7.061c-2.591,0-3.86,3.708-4.013,7.061H516.665z"/>
			<path fill="#005CA9" d="M523.952,375.048c0.863,0.56,2.387,1.27,3.962,1.27c2.185,0,3.606-1.371,3.606-3.555
				c0-1.88-0.66-3.149-3.149-4.826c-3.2-2.031-4.927-4.165-4.927-6.959c0-4.014,2.945-6.807,6.755-6.807
				c1.931,0,3.354,0.66,4.369,1.27l-1.016,2.946c-0.966-0.66-1.981-1.117-3.302-1.117c-2.083,0-3.149,1.523-3.149,3.149
				c0,1.625,0.609,2.54,3.048,4.216c2.844,1.828,5.079,4.064,5.079,7.467c0,4.928-3.353,7.315-7.416,7.315
				c-1.778,0-3.759-0.559-4.826-1.423L523.952,375.048z"/>
			<path fill="#005CA9" d="M544.038,348.786v5.74h4.725v2.946h-4.725v14.629c0,3.2,1.118,4.064,2.54,4.064
				c0.661,0,1.169-0.052,1.575-0.153l0.203,2.997c-0.712,0.254-1.625,0.407-2.896,0.407c-1.575,0-2.946-0.407-3.86-1.474
				c-1.016-1.117-1.474-2.793-1.474-6.197v-14.273h-2.997v-2.946h2.997v-4.165L544.038,348.786z"/>
			<path fill="#005CA9" d="M552.137,360.876c0-2.083-0.151-4.521-0.202-6.35h3.504l0.203,3.911h0.102
				c0.813-2.337,2.896-4.267,5.182-4.267c0.305,0,0.559,0,0.812,0.051v3.962c-0.254,0-0.508,0-0.812,0
				c-2.488,0-4.317,2.286-4.724,5.079c-0.102,0.661-0.152,1.423-0.152,2.235v13.614h-3.912V360.876z"/>
			<path fill="#005CA9" d="M577.405,373.524c0,1.88,0.051,4.013,0.254,5.588h-3.506l-0.254-2.591h-0.152
				c-1.066,1.879-2.793,2.996-4.927,2.996c-3.251,0-5.791-2.742-5.791-7.009c0-6.198,4.928-8.891,10.464-8.941v-0.762
				c0-3.301-0.863-5.536-3.911-5.536c-1.523,0-2.896,0.457-4.063,1.27l-0.863-2.742c1.066-0.763,3.302-1.626,5.739-1.626
				c4.928,0,7.011,3.2,7.011,8.687V373.524z M573.595,366.362c-2.031,0-6.756,0.405-6.756,5.739c0,3.252,1.626,4.369,2.997,4.369
				c1.728,0,3.15-1.271,3.607-3.708c0.102-0.458,0.151-0.966,0.151-1.423V366.362z"/>
			<path fill="#005CA9" d="M582.253,375.048c0.864,0.56,2.388,1.27,3.963,1.27c2.184,0,3.606-1.371,3.606-3.555
				c0-1.88-0.66-3.149-3.149-4.826c-3.2-2.031-4.928-4.165-4.928-6.959c0-4.014,2.947-6.807,6.756-6.807
				c1.931,0,3.353,0.66,4.369,1.27l-1.017,2.946c-0.965-0.66-1.98-1.117-3.302-1.117c-2.082,0-3.149,1.523-3.149,3.149
				c0,1.625,0.61,2.54,3.048,4.216c2.845,1.828,5.08,4.064,5.08,7.467c0,4.928-3.353,7.315-7.416,7.315
				c-1.778,0-3.76-0.559-4.826-1.423L582.253,375.048z"/>
		</g>
	</g>
</g>
</svg>
